<?xml version="1.0" encoding="UTF-8"?>
<svg xmlns="http://www.w3.org/2000/svg" xmlns:xlink="http://www.w3.org/1999/xlink" viewBox="0 0 500 500" width="500px" height="500px">
<g id="surface512624">
<path style=" stroke:none;fill-rule:nonzero;fill:rgb(100%,100%,100%);fill-opacity:1;" d="M 250 20 C 246.394531 19.949219 243.039062 21.84375 241.222656 24.957031 C 239.402344 28.074219 239.402344 31.925781 241.222656 35.042969 C 243.039062 38.15625 246.394531 40.050781 250 40 C 366.09375 40 460 133.90625 460 250 C 460 366.09375 366.09375 460 250 460 C 133.90625 460 40 366.09375 40 250 C 40 183.074219 71.308594 123.648438 120 85.195312 L 120 150 C 119.949219 153.605469 121.84375 156.960938 124.957031 158.777344 C 128.074219 160.597656 131.925781 160.597656 135.042969 158.777344 C 138.15625 156.960938 140.050781 153.605469 140 150 L 140 50 L 40 50 C 36.394531 49.949219 33.039062 51.84375 31.222656 54.957031 C 29.402344 58.074219 29.402344 61.925781 31.222656 65.042969 C 33.039062 68.15625 36.394531 70.050781 40 70 L 106.992188 70 C 54.019531 112.148438 20 177.121094 20 250 C 20 376.90625 123.09375 480 250 480 C 376.90625 480 480 376.90625 480 250 C 480 123.09375 376.90625 20 250 20 Z M 250 20 "/>
</g>
</svg>
